<svg xmlns="http://www.w3.org/2000/svg" viewBox="0 0 80 80">
  <defs>
    <linearGradient id="maytri-grad" x1="0" y1="0" x2="80" y2="80" gradientUnits="userSpaceOnUse">
      <stop offset="0" stop-color="#0284c7" />
      <stop offset="1" stop-color="#0369a1" />
    </linearGradient>
  </defs>
  <rect width="80" height="80" rx="18" fill="url(#maytri-grad)" />
  <g transform="translate(16,16)" fill="none" stroke="#ffffff" stroke-width="2" stroke-linecap="round" stroke-linejoin="round">
    <path d="M21.42 10.922a1 1 0 0 0-.019-1.838L12.83 5.18a2 2 0 0 0-1.66 0L2.6 9.08a1 1 0 0 0 0 1.832l8.57 3.908a2 2 0 0 0 1.66 0z" transform="scale(2)" />
    <path d="M22 10v6" transform="scale(2)" />
    <path d="M6 12.5V16a6 3 0 0 0 12 0v-3.5" transform="scale(2)" />
  </g>
</svg>
